# MagicaVoxel @ Ephtracy

# group
o 

# material
mtllib 1.mtl
usemtl palette

# normals
vn -1 0 0
vn 1 0 0
vn 0 0 1
vn 0 0 -1
vn 0 -1 0
vn 0 1 0

# texcoords
vt 0.970703 0.5
vt 0.974609 0.5
vt 0.978516 0.5
vt 0.982422 0.5
vt 0.986328 0.5

# verts
v -0.4 0 0.4
v -0.4 0 -0.4
v -0.4 0.1 0.4
v -0.4 0.1 -0.4
v -0.4 0.2 0.4
v -0.4 0.2 -0.4
v -0.3 0.2 -0.2
v -0.3 0.2 -0.3
v -0.3 0.3 -0.2
v -0.3 0.3 -0.3
v -0.3 0.4 0.2
v -0.3 0.4 0.1
v -0.3 0.7 0.2
v -0.3 0.7 0.1
v -0.2 0.2 0.2
v -0.2 0.2 0.1
v -0.2 0.4 0.3
v -0.2 0.4 0.2
v -0.2 0.4 0.1
v -0.2 0.4 0
v -0.2 0.7 0.3
v -0.2 0.7 0.2
v -0.2 0.7 0.1
v -0.2 0.7 0
v -0.2 0.8 0.2
v -0.2 0.8 0.1
v -0.1 0.2 -0.1
v -0.1 0.2 -0.2
v -0.1 0.3 -0.1
v -0.1 0.3 -0.2
v 0.1 0.2 0.3
v 0.1 0.2 0.2
v 0.1 0.3 0.3
v 0.1 0.3 0.2
v 0.2 0.2 0
v 0.2 0.2 -0.1
v 0.2 0.3 0
v 0.2 0.3 -0.1
v -0.2 0.2 -0.2
v -0.2 0.2 -0.3
v -0.2 0.3 -0.2
v -0.2 0.3 -0.3
v -0.1 0.2 0.2
v -0.1 0.2 0.1
v -0.1 0.4 0.3
v -0.1 0.4 0.2
v -0.1 0.4 0.1
v -0.1 0.4 0
v -0.1 0.7 0.3
v -0.1 0.7 0.2
v -0.1 0.7 0.1
v -0.1 0.7 0
v -0.1 0.8 0.2
v -0.1 0.8 0.1
v 0 0.2 -0.1
v 0 0.2 -0.2
v 0 0.3 -0.1
v 0 0.3 -0.2
v 0 0.4 0.2
v 0 0.4 0.1
v 0 0.7 0.2
v 0 0.7 0.1
v 0.2 0.2 0.3
v 0.2 0.2 0.2
v 0.2 0.3 0.3
v 0.2 0.3 0.2
v 0.3 0.2 0
v 0.3 0.2 -0.1
v 0.3 0.3 0
v 0.3 0.3 -0.1
v 0.4 0 0.4
v 0.4 0 -0.4
v 0.4 0.1 0.4
v 0.4 0.1 -0.4
v 0.4 0.2 0.4
v 0.4 0.2 -0.4
v -0.4 0 0.4
v -0.4 0.1 0.4
v -0.4 0.2 0.4
v 0.4 0 0.4
v 0.4 0.1 0.4
v 0.4 0.2 0.4
v -0.2 0.4 0.3
v -0.2 0.7 0.3
v -0.1 0.4 0.3
v -0.1 0.7 0.3
v 0.1 0.2 0.3
v 0.1 0.3 0.3
v 0.2 0.2 0.3
v 0.2 0.3 0.3
v -0.3 0.4 0.2
v -0.3 0.7 0.2
v -0.2 0.2 0.2
v -0.2 0.4 0.2
v -0.2 0.7 0.2
v -0.2 0.8 0.2
v -0.1 0.2 0.2
v -0.1 0.4 0.2
v -0.1 0.7 0.2
v -0.1 0.8 0.2
v 0 0.4 0.2
v 0 0.7 0.2
v 0.2 0.2 0
v 0.2 0.3 0
v 0.3 0.2 0
v 0.3 0.3 0
v -0.1 0.2 -0.1
v -0.1 0.3 -0.1
v 0 0.2 -0.1
v 0 0.3 -0.1
v -0.3 0.2 -0.2
v -0.3 0.3 -0.2
v -0.2 0.2 -0.2
v -0.2 0.3 -0.2
v 0.1 0.2 0.2
v 0.1 0.3 0.2
v 0.2 0.2 0.2
v 0.2 0.3 0.2
v -0.3 0.4 0.1
v -0.3 0.7 0.1
v -0.2 0.2 0.1
v -0.2 0.4 0.1
v -0.2 0.7 0.1
v -0.2 0.8 0.1
v -0.1 0.2 0.1
v -0.1 0.4 0.1
v -0.1 0.7 0.1
v -0.1 0.8 0.1
v 0 0.4 0.1
v 0 0.7 0.1
v -0.2 0.4 0
v -0.2 0.7 0
v -0.1 0.4 0
v -0.1 0.7 0
v 0.2 0.2 -0.1
v 0.2 0.3 -0.1
v 0.3 0.2 -0.1
v 0.3 0.3 -0.1
v -0.1 0.2 -0.2
v -0.1 0.3 -0.2
v 0 0.2 -0.2
v 0 0.3 -0.2
v -0.3 0.2 -0.3
v -0.3 0.3 -0.3
v -0.2 0.2 -0.3
v -0.2 0.3 -0.3
v -0.4 0 -0.4
v -0.4 0.1 -0.4
v -0.4 0.2 -0.4
v 0.4 0 -0.4
v 0.4 0.1 -0.4
v 0.4 0.2 -0.4
v -0.4 0 0.4
v 0.4 0 0.4
v -0.4 0 -0.4
v 0.4 0 -0.4
v -0.2 0.4 0.3
v -0.1 0.4 0.3
v -0.3 0.4 0.2
v -0.2 0.4 0.2
v -0.1 0.4 0.2
v 0 0.4 0.2
v -0.3 0.4 0.1
v -0.2 0.4 0.1
v -0.1 0.4 0.1
v 0 0.4 0.1
v -0.2 0.4 0
v -0.1 0.4 0
v -0.4 0.2 0.4
v 0.4 0.2 0.4
v 0.1 0.2 0.3
v 0.2 0.2 0.3
v -0.2 0.2 0.2
v -0.1 0.2 0.2
v 0.1 0.2 0.2
v 0.2 0.2 0.2
v -0.2 0.2 0.1
v -0.1 0.2 0.1
v 0.2 0.2 0
v 0.3 0.2 0
v -0.1 0.2 -0.1
v 0 0.2 -0.1
v 0.2 0.2 -0.1
v 0.3 0.2 -0.1
v -0.3 0.2 -0.2
v -0.2 0.2 -0.2
v -0.1 0.2 -0.2
v 0 0.2 -0.2
v -0.3 0.2 -0.3
v -0.2 0.2 -0.3
v -0.4 0.2 -0.4
v 0.4 0.2 -0.4
v 0.1 0.3 0.3
v 0.2 0.3 0.3
v 0.1 0.3 0.2
v 0.2 0.3 0.2
v 0.2 0.3 0
v 0.3 0.3 0
v -0.1 0.3 -0.1
v 0 0.3 -0.1
v 0.2 0.3 -0.1
v 0.3 0.3 -0.1
v -0.3 0.3 -0.2
v -0.2 0.3 -0.2
v -0.1 0.3 -0.2
v 0 0.3 -0.2
v -0.3 0.3 -0.3
v -0.2 0.3 -0.3
v -0.2 0.7 0.3
v -0.1 0.7 0.3
v -0.3 0.7 0.2
v -0.2 0.7 0.2
v -0.1 0.7 0.2
v 0 0.7 0.2
v -0.3 0.7 0.1
v -0.2 0.7 0.1
v -0.1 0.7 0.1
v 0 0.7 0.1
v -0.2 0.7 0
v -0.1 0.7 0
v -0.2 0.8 0.2
v -0.1 0.8 0.2
v -0.2 0.8 0.1
v -0.1 0.8 0.1

# faces
f 3/1/1 2/1/1 1/1/1
f 4/1/1 2/1/1 3/1/1
f 5/2/1 4/2/1 3/2/1
f 6/2/1 4/2/1 5/2/1
f 9/5/1 8/5/1 7/5/1
f 10/5/1 8/5/1 9/5/1
f 13/4/1 12/4/1 11/4/1
f 14/4/1 12/4/1 13/4/1
f 18/3/1 16/3/1 15/3/1
f 19/3/1 16/3/1 18/3/1
f 21/4/1 18/4/1 17/4/1
f 22/4/1 18/4/1 21/4/1
f 23/4/1 20/4/1 19/4/1
f 24/4/1 20/4/1 23/4/1
f 25/4/1 23/4/1 22/4/1
f 26/4/1 23/4/1 25/4/1
f 29/5/1 28/5/1 27/5/1
f 30/5/1 28/5/1 29/5/1
f 33/5/1 32/5/1 31/5/1
f 34/5/1 32/5/1 33/5/1
f 37/5/1 36/5/1 35/5/1
f 38/5/1 36/5/1 37/5/1
f 39/5/2 40/5/2 41/5/2
f 41/5/2 40/5/2 42/5/2
f 43/3/2 44/3/2 46/3/2
f 46/3/2 44/3/2 47/3/2
f 45/4/2 46/4/2 49/4/2
f 49/4/2 46/4/2 50/4/2
f 47/4/2 48/4/2 51/4/2
f 51/4/2 48/4/2 52/4/2
f 50/4/2 51/4/2 53/4/2
f 53/4/2 51/4/2 54/4/2
f 55/5/2 56/5/2 57/5/2
f 57/5/2 56/5/2 58/5/2
f 59/4/2 60/4/2 61/4/2
f 61/4/2 60/4/2 62/4/2
f 63/5/2 64/5/2 65/5/2
f 65/5/2 64/5/2 66/5/2
f 67/5/2 68/5/2 69/5/2
f 69/5/2 68/5/2 70/5/2
f 71/1/2 72/1/2 73/1/2
f 73/1/2 72/1/2 74/1/2
f 73/2/2 74/2/2 75/2/2
f 75/2/2 74/2/2 76/2/2
f 80/1/3 78/1/3 77/1/3
f 81/2/3 79/2/3 78/2/3
f 81/1/3 78/1/3 80/1/3
f 82/2/3 79/2/3 81/2/3
f 85/4/3 84/4/3 83/4/3
f 86/4/3 84/4/3 85/4/3
f 89/5/3 88/5/3 87/5/3
f 90/5/3 88/5/3 89/5/3
f 94/4/3 92/4/3 91/4/3
f 95/4/3 92/4/3 94/4/3
f 97/3/3 94/3/3 93/3/3
f 98/3/3 94/3/3 97/3/3
f 99/4/3 96/4/3 95/4/3
f 100/4/3 96/4/3 99/4/3
f 101/4/3 99/4/3 98/4/3
f 102/4/3 99/4/3 101/4/3
f 105/5/3 104/5/3 103/5/3
f 106/5/3 104/5/3 105/5/3
f 109/5/3 108/5/3 107/5/3
f 110/5/3 108/5/3 109/5/3
f 113/5/3 112/5/3 111/5/3
f 114/5/3 112/5/3 113/5/3
f 115/5/4 116/5/4 117/5/4
f 117/5/4 116/5/4 118/5/4
f 119/4/4 120/4/4 122/4/4
f 122/4/4 120/4/4 123/4/4
f 121/3/4 122/3/4 125/3/4
f 125/3/4 122/3/4 126/3/4
f 123/4/4 124/4/4 127/4/4
f 127/4/4 124/4/4 128/4/4
f 126/4/4 127/4/4 129/4/4
f 129/4/4 127/4/4 130/4/4
f 131/4/4 132/4/4 133/4/4
f 133/4/4 132/4/4 134/4/4
f 135/5/4 136/5/4 137/5/4
f 137/5/4 136/5/4 138/5/4
f 139/5/4 140/5/4 141/5/4
f 141/5/4 140/5/4 142/5/4
f 143/5/4 144/5/4 145/5/4
f 145/5/4 144/5/4 146/5/4
f 147/1/4 148/1/4 150/1/4
f 148/2/4 149/2/4 151/2/4
f 150/1/4 148/1/4 151/1/4
f 151/2/4 149/2/4 152/2/4
f 155/1/5 154/1/5 153/1/5
f 156/1/5 154/1/5 155/1/5
f 160/4/5 158/4/5 157/4/5
f 161/4/5 158/4/5 160/4/5
f 163/4/5 160/4/5 159/4/5
f 164/4/5 160/4/5 163/4/5
f 165/4/5 162/4/5 161/4/5
f 166/4/5 162/4/5 165/4/5
f 167/4/5 165/4/5 164/4/5
f 168/4/5 165/4/5 167/4/5
f 169/2/6 170/2/6 171/2/6
f 171/2/6 170/2/6 172/2/6
f 169/2/6 171/2/6 173/2/6
f 173/2/6 171/2/6 174/2/6
f 174/2/6 171/2/6 175/2/6
f 172/2/6 170/2/6 176/2/6
f 169/2/6 173/2/6 177/2/6
f 174/2/6 175/2/6 178/2/6
f 175/2/6 176/2/6 178/2/6
f 176/2/6 170/2/6 179/2/6
f 177/2/6 178/2/6 179/2/6
f 178/2/6 176/2/6 179/2/6
f 179/2/6 170/2/6 180/2/6
f 177/2/6 179/2/6 181/2/6
f 181/2/6 179/2/6 182/2/6
f 182/2/6 179/2/6 183/2/6
f 180/2/6 170/2/6 184/2/6
f 169/2/6 177/2/6 185/2/6
f 177/2/6 181/2/6 185/2/6
f 185/2/6 181/2/6 186/2/6
f 186/2/6 181/2/6 187/2/6
f 183/2/6 184/2/6 188/2/6
f 182/2/6 183/2/6 188/2/6
f 169/2/6 185/2/6 189/2/6
f 186/2/6 187/2/6 190/2/6
f 187/2/6 188/2/6 190/2/6
f 169/2/6 189/2/6 191/2/6
f 189/2/6 190/2/6 191/2/6
f 190/2/6 188/2/6 192/2/6
f 191/2/6 190/2/6 192/2/6
f 184/2/6 170/2/6 192/2/6
f 188/2/6 184/2/6 192/2/6
f 193/5/6 194/5/6 195/5/6
f 195/5/6 194/5/6 196/5/6
f 197/5/6 198/5/6 201/5/6
f 201/5/6 198/5/6 202/5/6
f 199/5/6 200/5/6 205/5/6
f 205/5/6 200/5/6 206/5/6
f 203/5/6 204/5/6 207/5/6
f 207/5/6 204/5/6 208/5/6
f 209/4/6 210/4/6 212/4/6
f 212/4/6 210/4/6 213/4/6
f 211/4/6 212/4/6 215/4/6
f 215/4/6 212/4/6 216/4/6
f 213/4/6 214/4/6 217/4/6
f 217/4/6 214/4/6 218/4/6
f 216/4/6 217/4/6 219/4/6
f 219/4/6 217/4/6 220/4/6
f 221/4/6 222/4/6 223/4/6
f 223/4/6 222/4/6 224/4/6
