# MagicaVoxel @ Ephtracy

# group
o 

# material
mtllib 5.mtl
usemtl palette

# normals
vn -1 0 0
vn 1 0 0
vn 0 0 1
vn 0 0 -1
vn 0 -1 0
vn 0 1 0

# texcoords
vt 0.970703 0.5
vt 0.974609 0.5
vt 0.990234 0.5

# verts
v -0.4 0 0.4
v -0.4 0 -0.4
v -0.4 0.1 0.4
v -0.4 0.1 -0.4
v -0.4 0.2 0.4
v -0.4 0.2 -0.4
v 0.4 0 0.4
v 0.4 0 -0.4
v 0.4 0.1 0.4
v 0.4 0.1 0.2
v 0.4 0.1 -0.2
v 0.4 0.1 -0.4
v 0.4 0.2 0.4
v 0.4 0.2 0.2
v 0.4 0.2 -0.2
v 0.4 0.2 -0.4
v -0.4 0 0.4
v -0.4 0.1 0.4
v -0.4 0.2 0.4
v -0.2 0.1 0.4
v -0.2 0.2 0.4
v 0.2 0.1 0.4
v 0.2 0.2 0.4
v 0.4 0 0.4
v 0.4 0.1 0.4
v 0.4 0.2 0.4
v -0.4 0 -0.4
v -0.4 0.1 -0.4
v -0.4 0.2 -0.4
v 0.4 0 -0.4
v 0.4 0.1 -0.4
v 0.4 0.2 -0.4
v -0.4 0 0.4
v 0.4 0 0.4
v -0.4 0 -0.4
v 0.4 0 -0.4
v -0.4 0.2 0.4
v -0.2 0.2 0.4
v 0.2 0.2 0.4
v 0.4 0.2 0.4
v 0.2 0.2 0.3
v 0.3 0.2 0.3
v 0.3 0.2 0.2
v 0.4 0.2 0.2
v -0.2 0.2 0
v -0.1 0.2 0
v -0.1 0.2 -0.1
v 0 0.2 -0.1
v 0 0.2 -0.2
v 0.4 0.2 -0.2
v -0.4 0.2 -0.4
v 0.4 0.2 -0.4

# faces
f 3/1/1 2/1/1 1/1/1
f 4/1/1 2/1/1 3/1/1
f 5/2/1 4/2/1 3/2/1
f 6/2/1 4/2/1 5/2/1
f 7/1/2 8/1/2 9/1/2
f 9/1/2 8/1/2 10/1/2
f 10/1/2 8/1/2 11/1/2
f 11/1/2 8/1/2 12/1/2
f 9/2/2 10/2/2 13/2/2
f 10/3/2 11/3/2 14/3/2
f 13/2/2 10/2/2 14/2/2
f 11/2/2 12/2/2 15/2/2
f 14/3/2 11/3/2 15/3/2
f 15/2/2 12/2/2 16/2/2
f 20/1/3 18/1/3 17/1/3
f 20/2/3 19/2/3 18/2/3
f 21/2/3 19/2/3 20/2/3
f 22/1/3 20/1/3 17/1/3
f 22/3/3 21/3/3 20/3/3
f 23/3/3 21/3/3 22/3/3
f 24/1/3 22/1/3 17/1/3
f 25/2/3 23/2/3 22/2/3
f 25/1/3 22/1/3 24/1/3
f 26/2/3 23/2/3 25/2/3
f 27/1/4 28/1/4 30/1/4
f 28/2/4 29/2/4 31/2/4
f 30/1/4 28/1/4 31/1/4
f 31/2/4 29/2/4 32/2/4
f 35/1/5 34/1/5 33/1/5
f 36/1/5 34/1/5 35/1/5
f 38/3/6 39/3/6 41/3/6
f 39/2/6 40/2/6 41/2/6
f 41/2/6 40/2/6 42/2/6
f 41/3/6 42/3/6 43/3/6
f 42/2/6 40/2/6 43/2/6
f 43/2/6 40/2/6 44/2/6
f 37/2/6 38/2/6 45/2/6
f 38/3/6 41/3/6 45/3/6
f 43/3/6 44/3/6 45/3/6
f 41/3/6 43/3/6 45/3/6
f 45/3/6 44/3/6 46/3/6
f 45/2/6 46/2/6 47/2/6
f 46/3/6 44/3/6 47/3/6
f 47/3/6 44/3/6 48/3/6
f 47/2/6 48/2/6 49/2/6
f 48/3/6 44/3/6 49/3/6
f 49/3/6 44/3/6 50/3/6
f 37/2/6 45/2/6 51/2/6
f 45/2/6 47/2/6 51/2/6
f 49/2/6 50/2/6 51/2/6
f 47/2/6 49/2/6 51/2/6
f 51/2/6 50/2/6 52/2/6
